<?xml version="1.0" encoding="UTF-8"?>
<svg id="Camada_2" data-name="Camada 2" xmlns="http://www.w3.org/2000/svg" viewBox="0 0 246.92 222.92">
  <defs>
    <style>
      .cls-1 {
        font-size: 28.55px;
      }

      .cls-1, .cls-2, .cls-3, .cls-4 {
        stroke: #59d353;
        stroke-miterlimit: 10;
      }

      .cls-1, .cls-3 {
        fill: #59d353;
        font-family: MyriadPro-Regular, 'Myriad Pro';
      }

      .cls-2 {
        stroke-width: 3px;
      }

      .cls-2, .cls-4 {
        fill: none;
      }

      .cls-3 {
        font-size: 30.36px;
      }

      .cls-4 {
        stroke-width: 2px;
      }
    </style>
  </defs>
  <g>
    <text class="cls-3" transform="translate(92.85 36.67)"><tspan x="0" y="0">1</tspan></text>
    <text class="cls-3" transform="translate(71.91 64.16)"><tspan x="0" y="0">1</tspan></text>
    <text class="cls-3" transform="translate(71.91 92.96)"><tspan x="0" y="0">1</tspan></text>
    <text class="cls-3" transform="translate(73.22 120.89)"><tspan x="0" y="0">1</tspan></text>
    <text class="cls-3" transform="translate(93.29 120.89)"><tspan x="0" y="0">1</tspan></text>
    <text class="cls-3" transform="translate(93.29 150.12)"><tspan x="0" y="0">1</tspan></text>
    <text class="cls-3" transform="translate(72.78 178.92)"><tspan x="0" y="0">1</tspan></text>
    <text class="cls-3" transform="translate(51.4 120.89)"><tspan x="0" y="0">1</tspan></text>
    <text class="cls-3" transform="translate(50.96 92.96)"><tspan x="0" y="0">1</tspan></text>
    <text class="cls-1" transform="translate(94.01 62.76)"><tspan x="0" y="0">0</tspan></text>
    <text class="cls-1" transform="translate(94.01 92.96)"><tspan x="0" y="0">0</tspan></text>
    <text class="cls-1" transform="translate(72.78 150.12)"><tspan x="0" y="0">0</tspan></text>
    <text class="cls-1" transform="translate(94.82 178.93)"><tspan x="0" y="0">0</tspan></text>
    <text class="cls-1" transform="translate(94.82 206.85)"><tspan x="0" y="0">0</tspan></text>
    <text class="cls-1" transform="translate(51.18 150.13)"><tspan x="0" y="0">0</tspan></text>
  </g>
  <polyline class="cls-2" points="117.57 6.3 117.57 16.94 117.57 76.84"/>
  <polyline class="cls-2" points="117.57 168.91 117.57 175.55 117.57 188.29"/>
  <line class="cls-2" x1="117.57" y1="217.06" x2="117.57" y2="209.64"/>
  <path class="cls-2" d="M1.5,56.04V14.15C1.5,7.17,7.17,1.5,14.15,1.5h50.64"/>
  <path class="cls-2" d="M183.46,1.5h49.31c6.99,0,12.65,5.67,12.65,12.65V56.04"/>
  <path class="cls-2" d="M1.5,162.08v48.22c0,6.15,4.98,11.13,11.13,11.13H61.14"/>
  <path class="cls-2" d="M245.42,162.08v48.03c0,6.18-5.13,11.13-11.31,10.92l-50.65-1.78"/>
  <path class="cls-2" d="M187.39,115.82c-.88-9.16-6.99-7.41-6.99-7.41,.26-3.58,.42-7.02,.47-10.33-6.23-3.97-8.26-3.42-8.26-3.42-28.01,.58-46.52-10.93-55.04-17.82v92.07l7.64-1.84s3.3-2.34,13.74,7.56c0,0-.07,.27-.27,.73-1.03,2.42-5.51,10.23-21.11,12.93v21.35c15.71,0,22.69-9.16,22.69-9.16,1.75-5.24,12.22-12.5,12.22-12.5,18.76-7.7,19.63-32.45,19.63-32.45,6.99,1.75,8.73-2.62,8.73-2.62,3.49-10.47,2.62-21.66,2.62-21.66,3.93-4.64,3.93-15.43,3.93-15.43Zm-38.27,12.78c-3.06,0-5.54-2.48-5.54-5.54s2.48-5.54,5.54-5.54,5.54,2.48,5.54,5.54-2.48,5.54-5.54,5.54Z"/>
  <path class="cls-2" d="M117.57,16.94s64.66-3.39,63.3,81.14"/>
  <path class="cls-4" d="M134.42,111.46s18.11-13.64,34.35,1.82"/>
  <path class="cls-4" d="M134.42,125.16s13.74-16.49,29.4-1.65"/>
  <circle class="cls-4" cx="149.12" cy="123.06" r="5.54" transform="translate(-4.91 239.92) rotate(-76.72)"/>
  <path class="cls-4" d="M117.57,151.68s2.14,5.22,12.17-2.89"/>
  <polyline class="cls-4" points="117.57 175.55 138.68 175.36 138.68 175.36"/>
</svg>